<?xml version="1.0" standalone="no"?><!DOCTYPE svg PUBLIC "-//W3C//DTD SVG 1.1//EN" "http://www.w3.org/Graphics/SVG/1.1/DTD/svg11.dtd"><svg t="1782145772675" class="icon" viewBox="0 0 1024 1024" version="1.1" xmlns="http://www.w3.org/2000/svg" p-id="3567" xmlns:xlink="http://www.w3.org/1999/xlink" width="200" height="200"><path d="M0 512c0 282.624 229.376 512 512 512s512-229.376 512-512S794.624 0 512 0 0 229.376 0 512z" fill="#333333" p-id="3568"></path><path d="M512 512m-281.6 0a281.6 281.6 0 1 0 563.2 0 281.6 281.6 0 1 0-563.2 0Z" fill="#FFFFFF" p-id="3569"></path><path d="M555.008 536.064c-7.168-9.728-13.824-19.456-20.48-28.672-25.6-35.84-51.712-71.168-77.312-107.008L408.064 332.8c-5.12-6.656-5.632-13.824-3.584-21.504 4.608-15.872 15.872-27.136 29.184-35.84 24.064-16.896 51.2-25.088 79.872-30.208 24.576-4.096 49.152-9.728 71.168-23.04 5.632-3.584 10.752-8.704 16.384-13.312 1.536-1.024 2.56-2.56 5.632-5.12 2.048 8.704 3.584 15.872 4.608 23.552 3.584 21.504 2.048 42.496-7.68 62.464-13.312 26.624-34.816 43.52-62.976 52.224-17.408 5.632-35.328 6.656-53.248 6.656-1.536 0-2.56 0-5.12 0.512 4.608 7.68 8.192 14.848 12.8 22.016 17.408 28.16 34.816 56.832 52.224 85.504l56.832 94.208c5.12 8.192 10.24 16.384 14.848 24.576 11.264 18.944 19.456 39.424 17.92 61.952-1.536 22.528-9.728 41.984-23.552 59.392-23.04 28.16-52.736 44.544-88.064 50.688-33.28 5.632-65.536 2.048-94.72-14.848-33.28-18.944-54.784-53.248-49.664-94.208 3.072-27.136 16.896-49.152 36.352-67.584 20.992-19.456 46.08-31.232 74.24-36.864 20.48-4.096 41.472-3.584 61.44 1.536h3.072z" fill="#595959" p-id="3570"></path></svg>