<?xml version="1.0" standalone="no"?><!DOCTYPE svg PUBLIC "-//W3C//DTD SVG 1.1//EN" "http://www.w3.org/Graphics/SVG/1.1/DTD/svg11.dtd"><svg class="icon" width="200px" height="200.00px" viewBox="0 0 1024 1024" version="1.1" xmlns="http://www.w3.org/2000/svg"><path d="M512 512m-512 0a512 512 0 1 0 1024 0 512 512 0 1 0-1024 0Z" fill="#333333" /><path d="M764.16 584.96c-11.776-67.84-60.672-112.128-60.672-112.128 6.912-61.44-18.688-72.448-18.688-72.448-5.376-190.464-169.472-187.136-172.8-186.88-3.584 0-167.424-3.328-172.8 186.88 0 0-25.6 11.008-18.688 72.448 0 0-49.152 44.288-60.672 112.128 0 0-6.144 114.432 56.064 14.08 0 0 14.08 38.144 39.68 72.448 0 0-46.08 15.616-41.984 56.064 0 0-1.536 45.056 98.048 41.984 0 0 70.144-5.376 91.136-35.072H521.472c20.992 29.696 91.136 35.072 91.136 35.072 99.584 3.072 98.048-41.984 98.048-41.984 3.84-40.448-41.984-56.064-41.984-56.064 25.6-34.304 39.68-72.448 39.68-72.448 62.208 100.352 55.808-14.08 55.808-14.08z" fill="#FFFFFF" /></svg>