<?xml version="1.0" standalone="no"?><!DOCTYPE svg PUBLIC "-//W3C//DTD SVG 1.1//EN" "http://www.w3.org/Graphics/SVG/1.1/DTD/svg11.dtd"><svg class="icon" width="200px" height="200.00px" viewBox="0 0 1024 1024" version="1.1" xmlns="http://www.w3.org/2000/svg"><path d="M512 512m-512 0a512 512 0 1 0 1024 0 512 512 0 1 0-1024 0Z" fill="#333333" /><path d="M792.064 421.888c-9.728-56.832-38.144-102.656-83.456-137.984C669.696 253.44 624.896 237.312 576 230.912c-11.776-1.536-23.552-2.304-35.328-3.328h-35.328c-9.472 1.024-18.688 2.048-27.904 3.328-130.816 15.616-222.208 118.784-242.944 228.096-2.56 14.08-3.84 28.416-5.888 42.752-0.256 1.536-0.512 3.328-1.024 4.864V545.28c1.024 9.472 2.048 18.688 3.328 27.904 13.568 102.912 82.944 182.784 183.04 210.688 22.528 6.144 45.312 10.24 68.864 11.264 1.536 0 3.328 0.512 4.864 1.024h45.568c11.776-1.024 23.552-2.048 35.328-3.328 28.928-3.328 57.344-9.216 84.224-20.48 1.536-0.768 3.584-2.56 3.584-4.096 0.256-20.992 0.256-41.728 0.256-63.232-8.96 3.584-17.408 7.168-26.112 10.24-37.888 13.824-77.312 19.456-117.76 18.944-27.136-0.512-53.76-3.84-79.616-12.544-49.664-16.896-86.528-48.384-108.288-96.256-19.2-41.984-22.272-86.272-17.408-131.584 3.584-34.048 13.824-66.304 31.744-95.488 41.472-66.816 99.84-105.984 180.224-109.056 29.184-1.024 57.6 1.792 85.248 11.008 37.888 12.8 67.328 36.608 88.064 70.656 22.528 36.608 28.416 76.8 26.368 118.784-1.024 23.296-4.096 46.336-12.544 68.352-5.888 15.872-13.568 30.976-27.904 41.216-6.144 4.352-13.312 6.656-20.736 6.656-11.264 0-19.712-6.656-22.528-19.968-2.048-9.728-3.84-19.712-3.328-29.696 1.28-32.512 3.584-65.024 5.888-97.536 2.56-31.232 5.632-62.464 8.704-94.208h-75.52c-1.024 11.008-2.304 22.272-3.584 35.072-1.28-2.56-2.048-3.84-2.56-4.864-8.96-23.552-27.136-34.048-51.2-36.096-45.568-3.84-79.872 16.128-107.008 51.456-22.016 28.928-32.768 62.208-36.352 98.048-2.56 27.136-2.56 54.016 4.864 80.384 8.448 30.208 24.32 54.784 52.992 69.376 29.696 15.104 78.08 15.104 105.216-14.336 9.472-10.24 16.64-21.76 21.76-34.56 1.024-2.56 2.048-4.864 3.328-7.168 0.512 0 1.024 0.256 1.536 0.256 0.512 3.072 0.768 5.888 1.28 8.96 5.888 30.208 28.928 52.224 59.904 55.808 46.848 5.376 86.784-9.216 119.808-42.752 32.768-33.28 48.384-73.984 53.248-119.808 0.512-5.888 1.536-11.776 2.048-17.408V453.12c-1.28-10.496-2.56-20.736-4.352-31.232zM548.608 560.64c-5.376 13.824-12.544 26.368-24.064 36.096-25.6 20.736-59.904 11.264-71.168-19.968-7.936-22.016-7.424-44.288-4.608-66.816 3.072-24.832 10.752-48.384 26.112-68.608 10.752-14.336 24.576-22.528 43.008-21.76 18.432 0.768 29.952 11.008 37.376 26.88 5.888 12.544 6.144 26.112 5.888 39.68-0.256 25.6-3.072 50.688-12.544 74.496z" fill="#FFFFFF" /></svg>