<svg xmlns="http://www.w3.org/2000/svg" width="1200" height="550" viewBox="0 0 1200 550" overflow="hidden" role="img" aria-labelledby="t d"><title id="t">About Hali — interactive personal homepage</title><desc id="d">A native web portfolio built around a dynamic island state machine and a WebGL sakura background.</desc><defs><linearGradient id="bg" x1="0" y1="0" x2="1" y2="1"><stop stop-color="#090910"/><stop offset="1" stop-color="#17111D"/></linearGradient><radialGradient id="petal"><stop stop-color="#FFD6E3"/><stop offset="1" stop-color="#F58EAD"/></radialGradient><clipPath id="c"><rect width="1200" height="550" rx="28"/></clipPath></defs><g clip-path="url(#c)"><rect width="1200" height="550" fill="url(#bg)"/><g opacity=".48" fill="url(#petal)"><ellipse cx="1120" cy="75" rx="18" ry="8" transform="rotate(-24 1120 75)"/><ellipse cx="1045" cy="145" rx="13" ry="6" transform="rotate(31 1045 145)"/><ellipse cx="1158" cy="233" rx="16" ry="7" transform="rotate(-52 1158 233)"/><ellipse cx="992" cy="332" rx="12" ry="5" transform="rotate(18 992 332)"/><ellipse cx="1088" cy="431" rx="17" ry="7" transform="rotate(44 1088 431)"/><ellipse cx="530" cy="32" rx="11" ry="5" transform="rotate(-35 530 32)"/></g><path d="M0 482H1200" stroke="#30283A"/>
<g transform="translate(64 64)" font-family="Arial,Helvetica,sans-serif"><rect width="261" height="36" rx="18" fill="#251A2B" stroke="#A64F73"/><circle cx="20" cy="18" r="5" fill="#F59AB8"/><text x="36" y="24" fill="#FBC7D8" font-size="15" font-weight="700">INTERACTIVE PORTFOLIO</text><text x="0" y="136" fill="#FFFFFF" font-size="72" font-weight="800">About Hali</text><text x="0" y="194" fill="#F59AB8" font-size="33" font-weight="700">USERHALI.COM</text><text x="0" y="249" fill="#E4DFE8" font-size="22">WebGL petals. Stateful navigation.</text><text x="0" y="284" fill="#A9A1B0" font-size="19">Projects, music, links, and motion.</text><g transform="translate(0 332)" font-family="monospace" font-size="15"><rect width="178" height="42" rx="9" fill="#15121A" stroke="#45394E"/><text x="21" y="27" fill="#FBC7D8">NATIVE WEBGL</text><rect x="190" width="199" height="42" rx="9" fill="#15121A" stroke="#45394E"/><text x="212" y="27" fill="#FBC7D8">STATIC DEPLOY</text></g></g>
<g transform="translate(535 54)" font-family="Arial,Helvetica,sans-serif"><rect width="607" height="410" rx="24" fill="#07070B" stroke="#403548"/><text x="28" y="38" fill="#766E7E" font-family="monospace" font-size="15">DYNAMIC ISLAND / STATE MACHINE</text><g transform="translate(65 71)"><rect width="477" height="76" rx="30" fill="#000000" stroke="#302C35"/><circle cx="39" cy="38" r="17" fill="#2A1720"/><path d="M31 39l6 6 11-14" fill="none" stroke="#F59AB8" stroke-width="3" stroke-linecap="round" stroke-linejoin="round"/><text x="74" y="33" fill="#FFFFFF" font-size="18" font-weight="700">userhali.com</text><text x="74" y="55" fill="#8F8995" font-family="monospace" font-size="13">DEFAULT / IDLE</text><g transform="translate(325 20)" fill="#F59AB8"><rect width="5" height="30" rx="2.5"/><rect x="11" y="8" width="5" height="22" rx="2.5"/><rect x="22" y="3" width="5" height="27" rx="2.5"/><rect x="33" y="13" width="5" height="17" rx="2.5"/></g><rect x="385" y="20" width="69" height="36" rx="18" fill="#17121B"/><text x="419" y="43" text-anchor="middle" fill="#D7D2DA" font-family="monospace" font-size="12">MUSIC</text></g>
<g transform="translate(23 184)" font-family="monospace"><g><rect width="118" height="84" rx="14" fill="#17121B" stroke="#45394E"/><text x="16" y="29" fill="#F59AB8" font-size="13">NAV</text><text x="16" y="58" fill="#FFFFFF" font-size="16">SECTIONS</text><text x="16" y="75" fill="#8F8995" font-size="11">scroll spy</text></g><path d="M128 42H154" stroke="#756A7E" stroke-width="2"/><g transform="translate(164 0)"><rect width="118" height="84" rx="14" fill="#17121B" stroke="#45394E"/><text x="16" y="29" fill="#F59AB8" font-size="13">PLAYER</text><text x="16" y="58" fill="#FFFFFF" font-size="16">MUSIC</text><text x="16" y="75" fill="#8F8995" font-size="11">remote audio</text></g><path d="M292 42H318" stroke="#756A7E" stroke-width="2"/><g transform="translate(328 0)"><rect width="118" height="84" rx="14" fill="#17121B" stroke="#45394E"/><text x="16" y="29" fill="#F59AB8" font-size="13">CONFIRM</text><text x="16" y="58" fill="#FFFFFF" font-size="16">EXTERNAL</text><text x="16" y="75" fill="#8F8995" font-size="11">8-sec timer</text></g><path d="M456 42H482" stroke="#756A7E" stroke-width="2"/><g transform="translate(492 0)"><rect width="69" height="84" rx="14" fill="#251A2B" stroke="#A64F73"/><text x="12" y="29" fill="#FBC7D8" font-size="13">MORE</text><text x="12" y="56" fill="#FFFFFF" font-size="13">EMAIL</text><text x="12" y="73" fill="#FFFFFF" font-size="13">TOAST</text></g></g><path d="M63 326C101 296 129 356 167 326S233 296 271 326S337 356 375 326S441 296 479 326S533 350 565 326" fill="none" stroke="#F59AB8" stroke-width="4" stroke-linecap="round"/></g><g transform="translate(64 518)" fill="#766E7E" font-family="monospace" font-size="15"><text>INTRO → ISLAND → CONTENT → EXTERNAL SERVICES</text><text x="950">VERCEL STATIC</text></g></g></svg>